<?xml version="1.0" encoding="utf-8"?>
        <svg version="1.1" id="golf" xmlns="http://www.w3.org/2000/svg" xmlns:xlink="http://www.w3.org/1999/xlink" x="0px" y="0px"
	 viewBox="0 0 480.512 171.572" style="enable-background:new 0 0 480.512 171.572;" xml:space="preserve">
        <style type="text/css">
            .st0{fill:#333333;stroke:#000000;stroke-width:0.25;stroke-miterlimit:10;}
            .st1{fill:#FFFFFF;stroke:#000000;stroke-width:0.25;stroke-miterlimit:10;}
            .st2{fill:none;stroke:#000000;stroke-width:0.25;stroke-miterlimit:10;}
            .st3{stroke:#000000;stroke-width:0.25;stroke-miterlimit:10;}
        </style>
        <polyline id="shadow" class="st0 unclickable" points="46.625,143.302 138,142.034 359.458,140.219 460.956,137.415 427.153,73.927 
            73.511,79.302 38.125,111.308 46.625,143.302 "/>
        <path id="body" class="st1" d="M478.375,123.427l-3.312-1.688c0,0,2.688-1.875,2.688-5.312c-0.125-16.75,0.375-19.75-1.875-21.5
            c-7.625-5.125-9.969-7.406-9.917-10.125c0.125-5.811,0.115-10.076,0.029-13.205c-8.288,0.182-25.371,0.461-26.363-0.295
            c-1.125-1.5,4.417-13.75,6.25-15.792c1.598-0.636,9.348-0.555,13.749-0.32c-1.254-1.581-2.818-3.487-4.744-5.763
            c-2.746-0.053-6.098-0.092-6.755-0.542c-1.125-0.771-14.686-20.258-23.375-29.25c-1.003-1.002-1.567-3.032,5.068-4.084
            c2.219-2.748,0.432-3.624,0.432-3.624L366.5,3.802c0,0-52.25-2.75-84.75-1.625s-34.125,2.125-49.5,4.375s-40.5,14.75-40.5,14.75
            l-55.25,29.25c-55.125,5.75-84,14.25-99.875,22.052c-4.976,2.446-8.846,5.294-11.893,8.177c7.337-3.791,14.612-6.854,17.893-6.854
            c8.25,0,11,0.875,13.25,3.125c2.035,2.035-12,15.419-21.625,18.772c-5.307,0.756-13.877,0.864-20.561,0.453
            c-0.021,0.035-0.043,0.074-0.064,0.108c-6.167,2-4.812,4.917-7.5,10.729c0,0,3,21.854,3,26.854c-8.875,0.75-6.667,4.375-4.688,5.271
            s8.438,4.062,15.188,4.062s29.375,0,29.375,0s-6.875-59.875,45-59.875c49.625-0.75,41.75,58.625,41.75,58.625l223.708-1.833
            c0,0-8.167-55.333,40.833-55.333s46.083,52.75,46.083,52.75s23.917-0.375,26.583-0.375c1.542-2.5,2.042-6.708,1.917-8.625
            C480.958,123.552,478.375,123.427,478.375,123.427z M30.203,129.302H19.125L15,122.052h15.204V129.302z M30.203,119.052H15.125
            l-4.292-7.375h19.37V119.052z M333.291,129.052l-183.667,3.25c0,0-4.25-30.25-4.167-49c3.185-17.493,7.527-26.425,7.527-26.425
            l229.765-9.324c0,0,9.767-0.999,11.208,0.999C395.4,50.551,340.291,127.219,333.291,129.052z"/>
        <path id="front_door" class="st1" d="M232.875,51.552c-8.593,0.4-58.717,4.473-79.89,5.326
            c-3.064,4.958-7.473,14.202-7.527,26.425c-0.083,18.75,4.167,49,4.167,49l122.809-2.173c0.115-31.881,2.728-59.131,5.87-80.503
            C255.184,50.219,236.708,50.886,232.875,51.552z"/>
        <path id="rear_door" class="st1" d="M393.958,48.552c-0.195-0.27-0.645-0.612-1.267-0.999
            c-5.623,0.031-68.973,0.909-114.386,2.073c-3.142,21.371-5.755,48.621-5.87,80.503l60.857-1.077
            C340.291,127.219,395.4,50.551,393.958,48.552z"/>
        <path id="headlight" class="st1" d="M34.25,95.825c9.625-3.353,23.66-16.737,21.625-18.772c-2.25-2.25-5-3.125-13.25-3.125
            c-3.281,0-10.556,3.064-17.893,6.854c-6.591,6.239-9.323,12.639-11.043,15.496C20.373,96.689,28.942,96.58,34.25,95.825z"/>
        <path id="r_indicator" class="st1" d="M473.375,119.552c-0.181-0.145-15.708,0.188-15.708,2c0,0.432,0,1.922,0,1.922
            c0.146,0.469,15.601,0.311,15.708,0.203C473.5,123.552,473.556,119.698,473.375,119.552z"/>
        <path id="s_indicator" class="st1" d="M143.75,79.302h-14c-0.943,0-1.708-0.765-1.708-1.708l0,0
            c0-0.943,0.765-1.708,1.708-1.708h14c0.943,0,1.708,0.765,1.708,1.708l0,0C145.458,78.538,144.693,79.302,143.75,79.302z"/>
        <path id="brake" class="st1" d="M445.875,55.511c-1.833,2.042-7.375,14.292-6.25,15.792c0.992,0.756,18.075,0.476,26.363,0.295
            c-0.256-9.436-1.196-8.545-1.196-8.545s0.637-0.543-5.168-7.862C455.222,54.956,447.473,54.874,445.875,55.511z"/>
        <path id="r_handle" class="st2" d="M377.312,61.927h-21.75c-1.07,0-1.938-0.867-1.938-1.937v0c0-1.07,0.867-1.938,1.938-1.938
            h21.75c1.07,0,1.938,0.867,1.938,1.938v0C379.25,61.06,378.382,61.927,377.312,61.927z"/>
        <path id="f_handle" class="st2" d="M270.645,65.347h-21.75c-1.07,0-1.938-0.867-1.938-1.937v0c0-1.07,0.867-1.937,1.938-1.937
            h21.75c1.07,0,1.938,0.867,1.938,1.937v0C272.583,64.48,271.715,65.347,270.645,65.347z"/>
        <path id="vent" class="st0" d="M10.833,111.677h19.37v7.375H15.125L10.833,111.677z M19.125,129.302h11.079v-7.25H15L19.125,129.302
            z"/>
        <g id="r_tire">
            <path id="r_tire_shadow" class="st1" d="M412.067,128.137c0.018-0.178,0.02-0.36,0.03-0.54l20.836,1.095
                c0.028-0.543,0.044-1.089,0.044-1.64c0-1.103-0.066-2.19-0.179-3.263l-20.731,2.179c-0.019-0.181-0.054-0.357-0.082-0.535
                l20.597-3.259c-0.112-0.707-0.24-1.41-0.398-2.101c-0.207-0.906-0.455-1.796-0.738-2.67l-19.833,6.444
                c-0.056-0.172-0.121-0.34-0.186-0.508l19.476-7.472c-0.589-1.538-1.301-3.015-2.116-4.425l-18.061,10.427
                c-0.09-0.156-0.183-0.311-0.281-0.462l17.491-11.354c-0.075-0.115-0.145-0.234-0.222-0.348c-0.836-1.248-1.765-2.428-2.767-3.54
                l-15.497,13.954c-0.121-0.134-0.236-0.273-0.364-0.401l14.74-14.735c-1.156-1.156-2.402-2.222-3.728-3.186l-12.257,16.87
                c-0.146-0.106-0.292-0.212-0.443-0.31l11.358-17.484c-1.366-0.889-2.806-1.673-4.309-2.342l-8.481,19.048
                c-0.164-0.073-0.332-0.139-0.501-0.204l7.477-19.467c-1.515-0.582-3.086-1.047-4.703-1.389l-4.333,20.386
                c-0.175-0.037-0.355-0.06-0.534-0.088l3.265-20.592c-0.205-0.032-0.406-0.073-0.612-0.101c-1.399-0.192-2.824-0.299-4.276-0.299
                v20.853c-0.182,0-0.36,0.018-0.541,0.027l-1.088-20.835c-1.659,0.087-3.281,0.309-4.862,0.644l4.334,20.391
                c-0.178,0.038-0.35,0.088-0.524,0.135l-5.394-20.142c-1.595,0.426-3.138,0.977-4.622,1.639l8.478,19.043
                c-0.165,0.074-0.327,0.153-0.487,0.235l-9.461-18.577c-1.464,0.747-2.864,1.6-4.183,2.56l12.257,16.87
                c-0.146,0.106-0.293,0.211-0.433,0.324l-13.118-16.205c-1.272,1.031-2.458,2.164-3.553,3.38l15.495,13.952
                c-0.121,0.134-0.244,0.266-0.358,0.406l-16.194-13.118c-1.028,1.268-1.956,2.619-2.779,4.04l18.054,10.423
                c-0.09,0.156-0.177,0.314-0.259,0.475l-18.574-9.468c-0.164,0.32-0.333,0.638-0.486,0.965c-0.538,1.15-0.999,2.343-1.395,3.564
                l19.827,6.442c-0.056,0.171-0.1,0.346-0.147,0.521l-20.141-5.401c-0.418,1.563-0.717,3.173-0.888,4.822l20.723,2.178
                c-0.018,0.178-0.02,0.36-0.03,0.54l-20.819-1.095c-0.01,0.197-0.028,0.392-0.035,0.59c-0.012,0.349-0.026,0.697-0.026,1.048
                c0,1.103,0.062,2.191,0.173,3.264l20.737-2.18c0.019,0.181,0.054,0.357,0.082,0.535l-20.606,3.26
                c0.257,1.636,0.643,3.229,1.144,4.77l19.833-6.444c0.056,0.172,0.121,0.34,0.186,0.508l-19.476,7.472
                c0.591,1.537,1.296,3.018,2.112,4.427l18.064-10.429c0.09,0.156,0.183,0.311,0.281,0.462l-17.489,11.354
                c0.895,1.375,1.895,2.674,2.989,3.888l15.496-13.953c0.121,0.134,0.236,0.273,0.364,0.401l-14.74,14.735
                c1.156,1.157,2.402,2.222,3.727,3.187l12.259-16.872c0.146,0.106,0.292,0.212,0.443,0.31l-11.359,17.485
                c1.076,0.701,2.194,1.344,3.356,1.91c0.313,0.152,0.634,0.29,0.953,0.432l8.481-19.049c0.164,0.073,0.332,0.139,0.501,0.204
                l-7.477,19.469c1.515,0.583,3.085,1.05,4.702,1.393l4.334-20.392c0.175,0.037,0.355,0.06,0.534,0.088l-3.266,20.601
                c1.594,0.251,3.225,0.392,4.889,0.392v-20.853c0.182,0,0.36-0.018,0.541-0.027l1.088,20.831c1.659-0.086,3.281-0.308,4.862-0.643
                l-4.333-20.388c0.178-0.038,0.35-0.088,0.524-0.135l5.394,20.144c1.594-0.427,3.143-0.967,4.626-1.63l-8.483-19.053
                c0.165-0.074,0.327-0.153,0.487-0.235l9.464,18.582c0.046-0.023,0.094-0.043,0.139-0.067c1.414-0.731,2.757-1.577,4.034-2.507
                l-12.251-16.862c0.146-0.106,0.293-0.211,0.433-0.324l13.101,16.184c1.013-0.821,1.99-1.684,2.893-2.624
                c0.231-0.24,0.452-0.489,0.676-0.737l-15.494-13.951c0.121-0.134,0.244-0.266,0.358-0.406l16.196,13.12
                c1.029-1.268,1.961-2.617,2.784-4.037l-18.061-10.428c0.09-0.156,0.177-0.314,0.259-0.475l18.58,9.471
                c0.741-1.448,1.37-2.962,1.88-4.53l-19.832-6.444c0.056-0.171,0.1-0.346,0.147-0.521l20.149,5.402
                c0.419-1.563,0.724-3.173,0.895-4.823L412.067,128.137z"/>
            <path id="r_hub" class="st1" d="M395.224,118.991l-13.118-16.205c0.422-0.342,0.855-0.67,1.294-0.99l12.257,16.87
                C395.511,118.773,395.364,118.878,395.224,118.991z M397.532,117.579l-8.478-19.043c-0.497,0.222-0.987,0.455-1.47,0.701
                l9.461,18.577C397.205,117.732,397.367,117.653,397.532,117.579z M399.593,116.905l-4.334-20.391
                c-0.084,0.018-0.17,0.031-0.254,0.049c-0.448,0.099-0.889,0.217-1.33,0.334l5.394,20.142
                C399.243,116.993,399.415,116.943,399.593,116.905z M392.771,121.869l-18.054-10.423c-0.272,0.469-0.531,0.946-0.779,1.431
                l18.574,9.468C392.595,122.183,392.681,122.025,392.771,121.869z M391.885,123.847l-19.827-6.442
                c-0.167,0.515-0.321,1.036-0.462,1.562l20.141,5.401C391.785,124.193,391.829,124.018,391.885,123.847z M401.75,116.677V95.825
                c-0.547,0-1.089,0.017-1.629,0.045l1.088,20.835C401.389,116.695,401.567,116.677,401.75,116.677z M394.048,120.118l-15.495-13.952
                c-0.363,0.403-0.715,0.817-1.057,1.239l16.194,13.118C393.804,120.384,393.927,120.252,394.048,120.118z M411.614,123.847
                l19.833-6.444c-0.168-0.518-0.349-1.031-0.543-1.537l-19.476,7.472C411.493,123.507,411.558,123.675,411.614,123.847z
                 M403.906,116.905l4.333-20.386c-0.529-0.112-1.063-0.21-1.602-0.294l-3.265,20.592
                C403.551,116.845,403.731,116.868,403.906,116.905z M391.432,125.968l-20.723-2.178c-0.056,0.537-0.098,1.079-0.126,1.624
                l20.819,1.095C391.411,126.328,391.413,126.146,391.432,125.968z M412.067,125.968l20.731-2.179
                c-0.057-0.543-0.131-1.081-0.216-1.615l-20.597,3.259C412.014,125.611,412.049,125.787,412.067,125.968z M410.728,121.869
                l18.061-10.427c-0.272-0.471-0.555-0.935-0.851-1.389l-17.491,11.354C410.545,121.558,410.637,121.713,410.728,121.869z
                 M407.842,118.667l12.257-16.87c-0.439-0.319-0.886-0.627-1.342-0.924l-11.358,17.484
                C407.55,118.456,407.696,118.561,407.842,118.667z M405.967,117.579l8.481-19.048c-0.495-0.221-0.997-0.428-1.505-0.623
                l-7.477,19.467C405.635,117.44,405.803,117.506,405.967,117.579z M409.451,120.118l15.497-13.954
                c-0.364-0.404-0.738-0.797-1.122-1.181l-14.74,14.735C409.215,119.845,409.33,119.984,409.451,120.118z M409.451,133.987
                l15.494,13.951c0.364-0.403,0.718-0.815,1.06-1.237l-16.196-13.12C409.695,133.721,409.572,133.853,409.451,133.987z
                 M403.906,137.2l4.333,20.388c0.533-0.113,1.062-0.239,1.585-0.379l-5.394-20.144C404.256,137.112,404.084,137.162,403.906,137.2z
                 M405.967,136.526l8.483,19.053c0.497-0.222,0.986-0.459,1.469-0.706l-9.464-18.582
                C406.294,136.373,406.132,136.452,405.967,136.526z M407.842,135.438l12.251,16.862c0.44-0.32,0.862-0.66,1.284-1.002
                l-13.101-16.184C408.135,135.227,407.988,135.331,407.842,135.438z M412.067,128.137l20.738,2.18
                c0.056-0.538,0.1-1.079,0.128-1.625l-20.836-1.095C412.088,127.777,412.086,127.959,412.067,128.137z M410.728,132.236
                l18.061,10.428c0.272-0.469,0.53-0.947,0.778-1.432l-18.58-9.471C410.904,131.922,410.818,132.08,410.728,132.236z
                 M411.614,130.258l19.832,6.444c0.168-0.515,0.323-1.036,0.464-1.562l-20.149-5.402
                C411.714,129.912,411.67,130.087,411.614,130.258z M397.532,136.526l-8.481,19.049c0.495,0.221,0.997,0.428,1.505,0.624
                l7.477-19.469C397.864,136.665,397.696,136.599,397.532,136.526z M392.771,132.236l-18.064,10.429
                c0.273,0.471,0.559,0.932,0.855,1.387l17.489-11.354C392.954,132.547,392.862,132.392,392.771,132.236z M391.885,130.258
                l-19.833,6.444c0.168,0.518,0.349,1.031,0.543,1.536l19.476-7.472C392.006,130.598,391.941,130.43,391.885,130.258z
                 M394.048,133.987l-15.496,13.953c0.099,0.11,0.193,0.223,0.294,0.331c0.269,0.29,0.547,0.572,0.826,0.852l14.74-14.735
                C394.285,134.26,394.169,134.121,394.048,133.987z M401.75,137.427v20.853c0.547,0,1.089-0.022,1.629-0.05L402.29,137.4
                C402.11,137.41,401.932,137.427,401.75,137.427z M399.593,137.2l-4.334,20.392c0.529,0.112,1.063,0.212,1.602,0.297l3.266-20.601
                C399.948,137.26,399.768,137.237,399.593,137.2z M391.432,128.137l-20.737,2.18c0.057,0.543,0.129,1.081,0.213,1.616l20.606-3.26
                C391.485,128.494,391.451,128.318,391.432,128.137z M395.657,135.438l-12.259,16.872c0.439,0.32,0.887,0.626,1.343,0.923
                l11.359-17.485C395.949,135.649,395.803,135.544,395.657,135.438z M399.592,116.904c-5.605,1.191-9.183,6.701-7.991,12.305
                c1.191,5.605,6.701,9.183,12.305,7.991c5.605-1.191,9.183-6.701,7.991-12.305C410.707,119.291,405.197,115.713,399.592,116.904z"/>
            <path id="r_logo" class="unclickable" d="M401.753,131.674c-2.37,0.046-4.641-1.902-4.622-4.643c0.018-2.591,2.066-4.602,4.634-4.601
                c2.732,0.001,4.642,2.272,4.621,4.674C406.364,129.579,404.275,131.726,401.753,131.674z M401.753,122.977
                c-2.156-0.029-4.012,1.762-4.078,3.958c-0.068,2.252,1.74,4.192,4.063,4.211c2.255,0.018,4.118-1.839,4.112-4.081
                C405.843,124.706,403.882,122.936,401.753,122.977z M399.182,124.747c-0.1,0.087-0.101,0.175-0.055,0.294
                c0.275,0.696,0.542,1.395,0.812,2.092c0.181,0.468,0.361,0.937,0.558,1.449c0.159-0.41,0.307-0.775,0.44-1.145
                c0.053-0.146,0.128-0.206,0.287-0.2c0.334,0.012,0.668,0.014,1.002-0.001c0.17-0.007,0.247,0.058,0.302,0.21
                c0.133,0.368,0.28,0.731,0.436,1.134c0.445-1.152,0.874-2.263,1.303-3.374c0.037-0.097,0.079-0.193,0.105-0.293
                c0.011-0.045,0.006-0.117-0.023-0.144c-0.255-0.239-0.518-0.471-0.799-0.723c-0.045,0.109-0.067,0.159-0.086,0.21
                c-0.293,0.807-0.589,1.613-0.876,2.423c-0.054,0.151-0.123,0.222-0.297,0.215c-0.354-0.015-0.71-0.01-1.065-0.002
                c-0.139,0.003-0.211-0.038-0.257-0.177c-0.127-0.381-0.272-0.756-0.41-1.133c-0.18-0.494-0.36-0.987-0.567-1.557
                C399.697,124.29,399.442,124.521,399.182,124.747z M405.01,125.934c-0.527,1.375-1.052,2.744-1.581,4.126
                C404.776,129.554,405.69,127.155,405.01,125.934z M398.474,125.984c-0.549,1.603,0.258,3.384,1.549,4.035
                C399.505,128.67,398.995,127.341,398.474,125.984z M401.729,128.082c-0.303,0.788-0.594,1.547-0.886,2.308
                c0.55,0.159,1.447,0.154,1.772-0.009C402.32,129.613,402.029,128.86,401.729,128.082z M401.772,126.048
                c0.288-0.798,0.563-1.558,0.844-2.338c-0.566-0.154-1.114-0.159-1.692-0.005C401.205,124.483,401.482,125.248,401.772,126.048z"/>
            <path id="r_tire_1_" class="st1" d="M401.75,87.552c-21.815,0-39.5,17.685-39.5,39.5s17.685,39.5,39.5,39.5
                s39.5-17.685,39.5-39.5S423.565,87.552,401.75,87.552z M401.75,158.28c-17.247,0-31.228-13.981-31.228-31.228
                s13.981-31.228,31.228-31.228s31.228,13.981,31.228,31.228S418.996,158.28,401.75,158.28z"/>
        </g>
        <g id="f_tire_1_">
            <path id="f_tire_shadow" class="st1" d="M103.442,128.137c0.018-0.178,0.02-0.36,0.03-0.54l20.836,1.095
                c0.028-0.543,0.044-1.089,0.044-1.64c0-1.103-0.066-2.19-0.179-3.263l-20.731,2.179c-0.019-0.181-0.054-0.357-0.082-0.535
                l20.597-3.259c-0.112-0.707-0.24-1.41-0.398-2.101c-0.207-0.906-0.455-1.796-0.738-2.67l-19.833,6.444
                c-0.056-0.172-0.121-0.34-0.186-0.508l19.476-7.472c-0.589-1.538-1.301-3.015-2.116-4.425l-18.061,10.427
                c-0.09-0.156-0.183-0.311-0.281-0.462l17.491-11.354c-0.075-0.115-0.145-0.234-0.222-0.348c-0.836-1.248-1.765-2.428-2.767-3.54
                l-15.497,13.954c-0.121-0.134-0.236-0.273-0.364-0.401l14.74-14.735c-1.156-1.156-2.402-2.222-3.728-3.186l-12.257,16.87
                c-0.146-0.106-0.292-0.212-0.443-0.31l11.358-17.484c-1.366-0.889-2.806-1.673-4.309-2.342l-8.481,19.048
                c-0.164-0.073-0.332-0.139-0.501-0.204l7.477-19.467c-1.515-0.582-3.086-1.047-4.703-1.389l-4.333,20.386
                c-0.175-0.037-0.355-0.06-0.534-0.088l3.265-20.592c-0.205-0.032-0.406-0.073-0.612-0.101c-1.399-0.192-2.824-0.299-4.276-0.299
                v20.853c-0.182,0-0.36,0.018-0.541,0.027L91.496,95.87c-1.659,0.087-3.281,0.309-4.862,0.644l4.334,20.391
                c-0.178,0.038-0.35,0.088-0.524,0.135L85.05,96.898c-1.595,0.426-3.138,0.977-4.622,1.639l8.478,19.043
                c-0.165,0.074-0.327,0.153-0.487,0.235l-9.461-18.577c-1.464,0.747-2.864,1.6-4.183,2.56l12.257,16.87
                c-0.146,0.106-0.293,0.211-0.433,0.324l-13.118-16.205c-1.272,1.031-2.458,2.164-3.553,3.38l15.495,13.952
                c-0.121,0.134-0.244,0.266-0.358,0.406l-16.194-13.118c-1.028,1.268-1.956,2.619-2.779,4.04l18.054,10.423
                c-0.09,0.156-0.177,0.314-0.259,0.475l-18.574-9.468c-0.164,0.32-0.333,0.638-0.486,0.965c-0.538,1.15-0.999,2.343-1.395,3.564
                l19.827,6.442c-0.056,0.171-0.1,0.346-0.147,0.521l-20.141-5.401c-0.418,1.563-0.717,3.173-0.888,4.822l20.723,2.178
                c-0.018,0.178-0.02,0.36-0.03,0.54l-20.819-1.095c-0.01,0.197-0.028,0.392-0.035,0.59c-0.012,0.349-0.026,0.697-0.026,1.048
                c0,1.103,0.062,2.191,0.173,3.264l20.737-2.18c0.019,0.181,0.054,0.357,0.082,0.535l-20.606,3.26
                c0.257,1.636,0.643,3.229,1.144,4.77l19.833-6.444c0.056,0.172,0.121,0.34,0.186,0.508l-19.476,7.472
                c0.591,1.537,1.296,3.018,2.112,4.427l18.064-10.429c0.09,0.156,0.183,0.311,0.281,0.462l-17.489,11.354
                c0.895,1.375,1.895,2.674,2.989,3.888l15.496-13.953c0.121,0.134,0.236,0.273,0.364,0.401l-14.74,14.735
                c1.156,1.157,2.402,2.222,3.727,3.187l12.259-16.872c0.146,0.106,0.292,0.212,0.443,0.31l-11.359,17.485
                c1.076,0.701,2.194,1.344,3.356,1.91c0.313,0.152,0.634,0.29,0.953,0.432l8.481-19.049c0.164,0.073,0.332,0.139,0.501,0.204
                l-7.477,19.469c1.515,0.583,3.085,1.05,4.702,1.393l4.334-20.392c0.175,0.037,0.355,0.06,0.534,0.088l-3.266,20.601
                c1.594,0.251,3.225,0.392,4.889,0.392v-20.853c0.182,0,0.36-0.018,0.541-0.027l1.088,20.831c1.659-0.086,3.281-0.308,4.862-0.643
                L95.281,137.2c0.178-0.038,0.35-0.088,0.524-0.135l5.394,20.144c1.594-0.427,3.143-0.967,4.626-1.63l-8.483-19.053
                c0.165-0.074,0.327-0.153,0.487-0.235l9.464,18.582c0.046-0.023,0.094-0.043,0.139-0.067c1.414-0.731,2.757-1.577,4.034-2.507
                l-12.251-16.862c0.146-0.106,0.293-0.211,0.433-0.324l13.101,16.184c1.013-0.821,1.99-1.684,2.893-2.624
                c0.231-0.24,0.452-0.489,0.676-0.737l-15.494-13.951c0.121-0.134,0.244-0.266,0.358-0.406l16.196,13.12
                c1.029-1.268,1.961-2.617,2.784-4.037l-18.061-10.428c0.09-0.156,0.177-0.314,0.259-0.475l18.58,9.471
                c0.741-1.448,1.37-2.962,1.88-4.53l-19.832-6.444c0.056-0.171,0.1-0.346,0.147-0.521l20.149,5.402
                c0.419-1.563,0.724-3.173,0.895-4.823L103.442,128.137z"/>
            <path id="f_hub" class="st1" d="M86.599,118.991l-13.118-16.205c0.422-0.342,0.855-0.67,1.294-0.99l12.257,16.87
                C86.886,118.773,86.739,118.878,86.599,118.991z M88.907,117.579l-8.478-19.043c-0.497,0.222-0.987,0.455-1.47,0.701l9.461,18.577
                C88.58,117.732,88.742,117.653,88.907,117.579z M90.968,116.905l-4.334-20.391c-0.084,0.018-0.17,0.031-0.254,0.049
                c-0.448,0.099-0.889,0.217-1.33,0.334l5.394,20.142C90.618,116.993,90.79,116.943,90.968,116.905z M84.146,121.869l-18.054-10.423
                c-0.272,0.469-0.531,0.946-0.779,1.431l18.574,9.468C83.97,122.183,84.056,122.025,84.146,121.869z M83.26,123.847l-19.827-6.442
                c-0.167,0.515-0.321,1.036-0.462,1.562l20.141,5.401C83.16,124.193,83.204,124.018,83.26,123.847z M93.125,116.677V95.825
                c-0.547,0-1.089,0.017-1.629,0.045l1.088,20.835C92.764,116.695,92.942,116.677,93.125,116.677z M85.423,120.118l-15.495-13.952
                c-0.363,0.403-0.715,0.817-1.057,1.239l16.194,13.118C85.179,120.384,85.302,120.252,85.423,120.118z M102.989,123.847
                l19.833-6.444c-0.168-0.518-0.349-1.031-0.543-1.537l-19.476,7.472C102.868,123.507,102.933,123.675,102.989,123.847z
                 M95.281,116.905l4.333-20.386c-0.529-0.112-1.063-0.21-1.602-0.294l-3.265,20.592C94.926,116.845,95.106,116.868,95.281,116.905z
                 M82.807,125.968l-20.723-2.178c-0.056,0.537-0.098,1.079-0.126,1.624l20.819,1.095C82.786,126.328,82.788,126.146,82.807,125.968z
                 M103.442,125.968l20.731-2.179c-0.057-0.543-0.131-1.081-0.216-1.615l-20.597,3.259
                C103.389,125.611,103.424,125.787,103.442,125.968z M102.103,121.869l18.061-10.427c-0.272-0.471-0.555-0.935-0.851-1.389
                l-17.491,11.354C101.92,121.558,102.012,121.713,102.103,121.869z M99.217,118.667l12.257-16.87
                c-0.439-0.319-0.886-0.627-1.342-0.924l-11.358,17.484C98.925,118.456,99.071,118.561,99.217,118.667z M97.342,117.579
                l8.481-19.048c-0.495-0.221-0.997-0.428-1.505-0.623l-7.477,19.467C97.01,117.44,97.178,117.506,97.342,117.579z M100.826,120.118
                l15.497-13.954c-0.364-0.404-0.738-0.797-1.122-1.181l-14.74,14.735C100.59,119.845,100.705,119.984,100.826,120.118z
                 M100.826,133.987l15.494,13.951c0.364-0.403,0.718-0.815,1.06-1.237l-16.196-13.12
                C101.07,133.721,100.947,133.853,100.826,133.987z M95.281,137.2l4.333,20.388c0.533-0.113,1.062-0.239,1.585-0.379l-5.394-20.144
                C95.631,137.112,95.459,137.162,95.281,137.2z M97.342,136.526l8.483,19.053c0.497-0.222,0.986-0.459,1.469-0.706l-9.464-18.582
                C97.669,136.373,97.507,136.452,97.342,136.526z M99.217,135.438l12.251,16.862c0.44-0.32,0.862-0.66,1.284-1.002L99.65,135.114
                C99.51,135.227,99.363,135.331,99.217,135.438z M103.442,128.137l20.738,2.18c0.056-0.538,0.1-1.079,0.128-1.625l-20.836-1.095
                C103.463,127.777,103.461,127.959,103.442,128.137z M102.103,132.236l18.061,10.428c0.272-0.469,0.53-0.947,0.778-1.432
                l-18.58-9.471C102.279,131.922,102.193,132.08,102.103,132.236z M102.989,130.258l19.832,6.444
                c0.168-0.515,0.323-1.036,0.464-1.562l-20.149-5.402C103.089,129.912,103.045,130.087,102.989,130.258z M88.907,136.526
                l-8.481,19.049c0.495,0.221,0.997,0.428,1.505,0.624l7.477-19.469C89.239,136.665,89.071,136.599,88.907,136.526z M84.146,132.236
                l-18.064,10.429c0.273,0.471,0.559,0.932,0.855,1.387l17.489-11.354C84.329,132.547,84.237,132.392,84.146,132.236z M83.26,130.258
                l-19.833,6.444c0.168,0.518,0.349,1.031,0.543,1.536l19.476-7.472C83.381,130.598,83.316,130.43,83.26,130.258z M85.423,133.987
                L69.927,147.94c0.099,0.11,0.193,0.223,0.294,0.331c0.269,0.29,0.547,0.572,0.826,0.852l14.74-14.735
                C85.66,134.26,85.544,134.121,85.423,133.987z M93.125,137.427v20.853c0.547,0,1.089-0.022,1.629-0.05L93.665,137.4
                C93.485,137.41,93.307,137.427,93.125,137.427z M90.968,137.2l-4.334,20.392c0.529,0.112,1.063,0.212,1.602,0.297l3.266-20.601
                C91.323,137.26,91.143,137.237,90.968,137.2z M82.807,128.137l-20.737,2.18c0.057,0.543,0.129,1.081,0.213,1.616l20.606-3.26
                C82.86,128.494,82.826,128.318,82.807,128.137z M87.032,135.438L74.774,152.31c0.439,0.32,0.887,0.626,1.343,0.923l11.359-17.485
                C87.324,135.649,87.178,135.544,87.032,135.438z M90.967,116.904c-5.605,1.191-9.183,6.701-7.991,12.305
                c1.191,5.605,6.701,9.183,12.305,7.991c5.605-1.191,9.183-6.701,7.991-12.305S96.572,115.713,90.967,116.904z"/>
            <path id="f_tire" class="st1" d="M93.125,87.552c-21.815,0-39.5,17.685-39.5,39.5s17.685,39.5,39.5,39.5s39.5-17.685,39.5-39.5
                S114.94,87.552,93.125,87.552z M93.125,158.28c-17.247,0-31.228-13.981-31.228-31.228s13.981-31.228,31.228-31.228
                s31.228,13.981,31.228,31.228S110.371,158.28,93.125,158.28z"/>
            <path id="f_logo" class="unclickable" d="M93.128,131.674c-2.37,0.046-4.641-1.902-4.622-4.643c0.018-2.591,2.066-4.602,4.634-4.601
                c2.732,0.001,4.642,2.272,4.621,4.674C97.739,129.579,95.65,131.726,93.128,131.674z M93.128,122.977
                c-2.156-0.029-4.012,1.762-4.078,3.958c-0.068,2.252,1.74,4.192,4.063,4.211c2.255,0.018,4.119-1.839,4.112-4.081
                C97.218,124.706,95.257,122.936,93.128,122.977z M90.557,124.747c-0.1,0.087-0.101,0.175-0.055,0.294
                c0.275,0.696,0.542,1.395,0.812,2.092c0.181,0.468,0.361,0.937,0.558,1.449c0.159-0.41,0.307-0.775,0.44-1.145
                c0.053-0.146,0.128-0.206,0.287-0.2c0.334,0.012,0.668,0.014,1.002-0.001c0.17-0.007,0.247,0.058,0.302,0.21
                c0.133,0.368,0.28,0.731,0.436,1.134c0.445-1.152,0.874-2.263,1.303-3.374c0.037-0.097,0.079-0.193,0.105-0.293
                c0.011-0.045,0.006-0.117-0.023-0.144c-0.255-0.239-0.518-0.471-0.799-0.723c-0.045,0.109-0.067,0.159-0.086,0.21
                c-0.293,0.807-0.588,1.613-0.876,2.423c-0.054,0.151-0.123,0.222-0.297,0.215c-0.354-0.015-0.71-0.01-1.064-0.002
                c-0.139,0.003-0.211-0.038-0.257-0.177c-0.127-0.381-0.272-0.756-0.41-1.133c-0.18-0.494-0.36-0.987-0.567-1.557
                C91.072,124.29,90.817,124.521,90.557,124.747z M96.385,125.934c-0.527,1.375-1.052,2.744-1.581,4.126
                C96.151,129.554,97.065,127.155,96.385,125.934z M89.849,125.984c-0.549,1.603,0.258,3.384,1.549,4.035
                C90.88,128.67,90.37,127.341,89.849,125.984z M93.104,128.082c-0.303,0.788-0.594,1.547-0.886,2.308
                c0.55,0.159,1.447,0.154,1.772-0.009C93.695,129.613,93.404,128.86,93.104,128.082z M93.147,126.048
                c0.288-0.798,0.563-1.558,0.844-2.338c-0.566-0.154-1.114-0.159-1.692-0.005C92.58,124.483,92.857,125.248,93.147,126.048z"/>
        </g>
        <path id="rear_window" class="st1" d="M424.75,19.636c8.689,8.992,22.25,28.479,23.375,29.25c0.657,0.45,4.01,0.488,6.755,0.542
            c-1.354-1.6-2.882-3.376-4.63-5.375c-15.75-18-24.094-24.781-20.688-28.188c0.095-0.109,0.172-0.209,0.256-0.313
            C423.182,16.604,423.747,18.633,424.75,19.636z"/>
        <path id="window_trim" class="st3" d="M395.625,38.886c0,0-10.5-23.333-17.667-27.5c-3.458-2.958-65.833-4.667-74.667-4.833
            c0,0-38.667-1.708-72.667,5.375s-89.75,43.375-87,44.875c0.552,0.301,4.046,0.289,9.36,0.076c21.173-0.852,71.297-4.926,79.89-5.326
            c11.363-1.976,151.331-3.952,159.816-3.999c0.103-0.001,0.204-0.001,0.267-0.001C392.958,47.552,397.291,43.219,395.625,38.886z
             M267.939,48.912c-18.094,0.519-31.806,1.083-35.172,1.644c-3.194,0.151-11.724,0.776-22.504,1.566
            c-18.693,1.369-43.107,3.158-56.623,3.727c-2.773,0.117-5.099,0.184-6.81,0.184c-0.673,0-1.188-0.01-1.58-0.025
            c6.707-6.146,54.193-36.563,85.579-43.103c17.335-3.611,35.98-4.918,49.752-5.346L267.939,48.912z M392.516,46.554
            c-0.371,0.002-0.914,0.007-1.586,0.014c-4.28,0.044-14.449,0.181-27.681,0.387V10.155c7.664,0.601,13.107,1.276,14.063,1.995
            l0.142,0.1c6.809,3.959,17.154,26.815,17.258,27.046C395.881,42.339,393.365,45.581,392.516,46.554z"/>
        <path id="windows" class="st1" d="M280.58,7.56l-12.642,41.353c-0.225,0.006-0.454,0.013-0.677,0.019
            c-0.37,0.011-0.736,0.021-1.102,0.032c-0.575,0.017-1.147,0.034-1.712,0.051c-0.4,0.012-0.795,0.024-1.19,0.036
            c-0.512,0.016-1.02,0.031-1.523,0.047c-0.421,0.013-0.836,0.026-1.251,0.039c-0.492,0.016-0.982,0.031-1.465,0.047
            c-0.383,0.012-0.762,0.025-1.138,0.037c-0.49,0.016-0.974,0.032-1.454,0.049c-0.377,0.013-0.75,0.026-1.12,0.038
            c-0.46,0.016-0.914,0.032-1.364,0.048c-0.359,0.013-0.714,0.026-1.066,0.038c-0.452,0.016-0.896,0.033-1.336,0.049
            c-0.343,0.013-0.684,0.026-1.02,0.039c-0.415,0.016-0.821,0.032-1.225,0.048c-0.342,0.014-0.682,0.027-1.016,0.041
            c-0.396,0.016-0.783,0.032-1.167,0.048c-0.309,0.013-0.618,0.026-0.919,0.039c-0.384,0.017-0.756,0.033-1.127,0.05
            c-0.296,0.013-0.592,0.026-0.879,0.04c-0.342,0.016-0.672,0.032-1.001,0.047c-0.291,0.014-0.583,0.028-0.864,0.042
            c-0.317,0.016-0.619,0.032-0.923,0.047c-0.267,0.014-0.538,0.028-0.795,0.042c-0.302,0.016-0.588,0.033-0.875,0.049
            c-0.235,0.013-0.475,0.027-0.701,0.04c-0.285,0.017-0.551,0.034-0.82,0.051c-0.207,0.013-0.42,0.026-0.617,0.039
            c-0.262,0.017-0.503,0.035-0.748,0.052c-0.18,0.013-0.37,0.025-0.541,0.038c-0.235,0.017-0.447,0.035-0.665,0.053
            c-0.156,0.013-0.322,0.025-0.469,0.038c-0.214,0.018-0.404,0.037-0.597,0.055c-0.122,0.012-0.257,0.023-0.371,0.035
            c-0.196,0.02-0.364,0.04-0.535,0.06c-0.087,0.01-0.189,0.02-0.269,0.031c-0.238,0.03-0.449,0.06-0.629,0.09
            c-3.194,0.151-11.724,0.776-22.504,1.566c-1.265,0.093-2.557,0.187-3.869,0.283c-0.394,0.029-0.791,0.058-1.189,0.087
            c-0.204,0.015-0.407,0.03-0.612,0.045c-0.436,0.032-0.872,0.064-1.312,0.096c-0.236,0.017-0.472,0.034-0.709,0.052
            c-2.252,0.164-4.547,0.331-6.866,0.498c-0.14,0.01-0.28,0.02-0.421,0.03c-0.559,0.04-1.119,0.08-1.68,0.121
            c-0.066,0.005-0.133,0.01-0.199,0.014c-0.609,0.044-1.219,0.087-1.829,0.131c-0.009,0.001-0.017,0.001-0.026,0.002
            c-2.569,0.183-5.145,0.365-7.699,0.542c-0.009,0.001-0.017,0.001-0.026,0.002c-0.625,0.043-1.249,0.086-1.871,0.129
            c-0.028,0.002-0.055,0.004-0.083,0.006c-15.016,1.032-28.907,1.875-35.043,1.875c-0.673,0-1.188-0.01-1.58-0.025
            c6.707-6.146,54.193-36.563,85.579-43.103C248.163,9.295,266.809,7.988,280.58,7.56z M303.248,7.551
            c-0.036-0.002-3.183-0.138-8.379-0.172l-5.521,40.981c5.45-0.128,11.045-0.252,16.693-0.37c0.195-0.004,0.391-0.008,0.586-0.012
            c0.959-0.02,1.919-0.04,2.88-0.06c0.212-0.004,0.425-0.009,0.637-0.013c0.92-0.019,1.841-0.038,2.762-0.056
            c0.25-0.005,0.499-0.01,0.748-0.015c0.951-0.019,1.903-0.038,2.853-0.057c0.078-0.002,0.155-0.003,0.233-0.005
            c1.038-0.02,2.075-0.041,3.11-0.061c0.214-0.004,0.428-0.008,0.642-0.012c0.951-0.018,1.901-0.037,2.849-0.055
            c0.189-0.004,0.378-0.007,0.568-0.011c0.926-0.018,1.85-0.035,2.772-0.052c0.274-0.005,0.547-0.01,0.821-0.015
            c0.812-0.015,1.622-0.03,2.43-0.045c0.449-0.008,0.897-0.016,1.344-0.025c0.637-0.012,1.274-0.023,1.907-0.035
            c0.451-0.008,0.899-0.016,1.348-0.024c0.701-0.013,1.4-0.025,2.096-0.038c0.363-0.006,0.724-0.013,1.085-0.019
            c0.783-0.014,1.564-0.028,2.34-0.041c0.252-0.004,0.504-0.009,0.756-0.013c0.842-0.015,1.679-0.029,2.511-0.044
            c0.25-0.004,0.5-0.009,0.749-0.013c0.757-0.013,1.508-0.026,2.255-0.039c0.401-0.007,0.802-0.014,1.201-0.02
            c0.541-0.009,1.077-0.018,1.612-0.027c0.571-0.01,1.141-0.019,1.706-0.029c0.435-0.007,0.867-0.014,1.299-0.021
            c0.521-0.009,1.04-0.017,1.555-0.026c0.528-0.009,1.051-0.017,1.573-0.026c0.465-0.008,0.93-0.015,1.389-0.023
            c0.569-0.009,1.132-0.018,1.692-0.027l2.241-37.078C343.194,8.705,316.752,7.807,303.248,7.551z M394.712,39.296
            c-0.104-0.23-10.449-23.087-17.258-27.046l-0.142-0.1c-0.957-0.719-6.397-1.394-14.063-1.995v36.801
            c0.185-0.003,0.372-0.006,0.556-0.009c0.432-0.007,0.866-0.013,1.291-0.02c0.37-0.006,0.732-0.011,1.097-0.017
            c0.578-0.009,1.158-0.018,1.723-0.026c0.079-0.001,0.155-0.002,0.233-0.004c0.759-0.012,1.507-0.023,2.24-0.034
            c0.196-0.003,0.386-0.006,0.581-0.009c0.551-0.008,1.099-0.016,1.634-0.024c0.388-0.006,0.761-0.011,1.14-0.017
            c2.274-0.033,4.387-0.063,6.322-0.09c1.725-0.024,3.322-0.046,4.743-0.064c2.621-0.034,4.699-0.059,6.122-0.074
            c0.672-0.007,1.214-0.012,1.586-0.014C393.365,45.581,395.881,42.339,394.712,39.296z"/>
        <path id="rearview" class="st1" d="M183.958,39.636c2.051,0.323,3.043,13.842,1.23,15.296c-1.813,1.454-19.688-1.504-20.626-4.379
            C163.312,45.49,171.916,39.094,183.958,39.636z"/>
        </svg>