<svg id="golf" xmlns="http://www.w3.org/2000/svg" viewBox="0 0 476.51 164.9"><title>Golf_2</title><polyline id="shadow" points="44.09 141.52 135.47 140.25 356.93 138.44 458.43 135.63 424.62 72.14 70.98 77.52 35.59 109.53 44.09 141.52" style="fill:#333;stroke:#000;stroke-miterlimit:10;stroke-width:0.25px"/><path id="body" d="M478.38,123.43l-3.32-1.69a6.87,6.87,0,0,0,2.69-5.31c-.12-16.75.38-19.75-1.87-21.5-7.63-5.13-10-7.41-9.92-10.13.12-5.81.11-10.07,0-13.2-8.29.18-25.37.46-26.37-.3-1.12-1.5,4.42-13.75,6.25-15.79,1.6-.64,9.35-.55,13.75-.32-1.25-1.58-2.81-3.49-4.74-5.76-2.75-.06-6.1-.09-6.76-.54-1.12-.78-14.68-20.26-23.37-29.25-1-1-1.57-3,5.07-4.09,2.22-2.75.43-3.62.43-3.62L366.5,3.8s-52.25-2.75-84.75-1.62-34.12,2.12-49.5,4.37-40.5,14.75-40.5,14.75L136.5,50.55c-55.12,5.75-84,14.25-99.87,22a48.05,48.05,0,0,0-11.9,8.18c7.34-3.79,14.61-6.85,17.9-6.85,8.25,0,11,.87,13.25,3.12,2,2-12,15.42-21.63,18.77a117.39,117.39,0,0,1-20.56.46l-.07.11c-6.16,2-4.81,4.91-7.5,10.72,0,0,3,21.86,3,26.86-8.87.75-6.66,4.37-4.68,5.27s8.43,4.06,15.18,4.06H49S42.13,83.43,94,83.43c49.63-.75,41.75,58.62,41.75,58.62l223.71-1.83s-8.17-55.33,40.83-55.33,46.08,52.75,46.08,52.75,23.92-.38,26.59-.38a17.47,17.47,0,0,0,1.91-8.62C481,123.55,478.38,123.43,478.38,123.43ZM30.2,129.3H19.13L15,122.05H30.2v7.25Zm0-10.25H15.13l-4.3-7.37H30.2Zm303.09,10L149.62,132.3s-4.25-30.25-4.16-49C148.64,65.81,153,56.88,153,56.88l229.77-9.33s9.77-1,11.21,1S340.29,127.22,333.29,129.05Z" transform="translate(-2.53 -1.78)" style="fill:#fff;stroke:#000;stroke-miterlimit:10;stroke-width:0.25px"/><path id="front_door" data-name="front door" d="M232.88,51.55c-8.6.4-58.72,4.47-79.89,5.33a50.92,50.92,0,0,0-7.53,26.42c-.08,18.75,4.17,49,4.17,49l122.8-2.17a570.54,570.54,0,0,1,5.87-80.5C255.18,50.22,236.71,50.89,232.88,51.55Z" transform="translate(-2.53 -1.78)" style="fill:#fff;stroke:#000;stroke-miterlimit:10;stroke-width:0.25px"/><path id="rear_door" data-name="rear door" d="M394,48.55a5.11,5.11,0,0,0-1.27-1c-5.62,0-69,.91-114.39,2.08a570.54,570.54,0,0,0-5.87,80.5l60.86-1.08C340.29,127.22,395.4,50.55,394,48.55Z" transform="translate(-2.53 -1.78)" style="fill:#fff;stroke:#000;stroke-miterlimit:10;stroke-width:0.25px"/><path id="headlight" d="M34.25,95.82c9.63-3.35,23.66-16.73,21.63-18.77-2.25-2.25-5-3.12-13.25-3.12-3.29,0-10.56,3.06-17.9,6.85-6.59,6.24-9.32,12.64-11,15.5A117.39,117.39,0,0,0,34.25,95.82Z" transform="translate(-2.53 -1.78)" style="fill:#fff;stroke:#000;stroke-miterlimit:10;stroke-width:0.25px"/><path id="r_indicator" data-name="r indicator" d="M473.38,119.55c-.19-.14-15.71.19-15.71,2v1.92c.14.47,15.6.31,15.71.21A19,19,0,0,0,473.38,119.55Z" transform="translate(-2.53 -1.78)" style="fill:#fff;stroke:#000;stroke-miterlimit:10;stroke-width:0.25px"/><path id="s_indicator" data-name="s indicator" d="M143.75,79.3h-14A1.71,1.71,0,0,1,128,77.59h0a1.71,1.71,0,0,1,1.71-1.7h14a1.71,1.71,0,0,1,1.71,1.7h0A1.71,1.71,0,0,1,143.75,79.3Z" transform="translate(-2.53 -1.78)" style="fill:#fff;stroke:#000;stroke-miterlimit:10;stroke-width:0.25px"/><path id="brake" d="M445.88,55.51c-1.84,2-7.38,14.29-6.25,15.79,1,.76,18.07.48,26.36.3-.26-9.44-1.2-8.55-1.2-8.55s.64-.54-5.17-7.86C455.22,55,447.47,54.87,445.88,55.51Z" transform="translate(-2.53 -1.78)" style="fill:#fff;stroke:#000;stroke-miterlimit:10;stroke-width:0.25px"/><path id="r_handle" data-name="r handle" d="M377.31,61.93H355.56A1.94,1.94,0,0,1,353.62,60h0a1.94,1.94,0,0,1,1.94-1.94h21.75A1.94,1.94,0,0,1,379.25,60h0A1.94,1.94,0,0,1,377.31,61.93Z" transform="translate(-2.53 -1.78)" style="fill:none;stroke:#000;stroke-miterlimit:10;stroke-width:0.25px"/><path id="f_handle" data-name="f handle" d="M270.64,65.35H248.89A1.93,1.93,0,0,1,247,63.41h0a1.93,1.93,0,0,1,1.93-1.94h21.75a1.94,1.94,0,0,1,1.94,1.94h0A1.94,1.94,0,0,1,270.64,65.35Z" transform="translate(-2.53 -1.78)" style="fill:none;stroke:#000;stroke-miterlimit:10;stroke-width:0.25px"/><path id="vent" d="M10.83,111.68H30.2v7.37H15.13Zm8.3,17.62H30.2v-7.25H15Z" transform="translate(-2.53 -1.78)" style="fill:#333;stroke:#000;stroke-miterlimit:10;stroke-width:0.25px"/><g id="r_tire" data-name="r tire"><path id="r_tire_shadow" data-name="r tire shadow" d="M412.07,128.14l0-.54,20.83,1.09c0-.54.05-1.09.05-1.64a31.89,31.89,0,0,0-.18-3.26L412.07,126c0-.18-.06-.36-.08-.54l20.59-3.26c-.11-.7-.24-1.41-.4-2.1-.2-.9-.45-1.79-.73-2.67l-19.84,6.45c-.05-.18-.12-.34-.18-.51l19.47-7.47a31.58,31.58,0,0,0-2.11-4.43l-18.06,10.43c-.09-.16-.19-.31-.28-.46l17.49-11.36c-.08-.11-.15-.23-.23-.35a32.35,32.35,0,0,0-2.76-3.54l-15.5,14-.36-.4L423.83,105a32.29,32.29,0,0,0-3.73-3.18l-12.26,16.87a4.37,4.37,0,0,0-.44-.31l11.36-17.49a31.44,31.44,0,0,0-4.31-2.34l-8.48,19-.5-.21,7.47-19.46a30.69,30.69,0,0,0-4.7-1.39l-4.33,20.38-.54-.08,3.27-20.6-.61-.1a31.82,31.82,0,0,0-4.28-.3v20.86l-.54,0-1.09-20.83a32.29,32.29,0,0,0-4.86.64l4.33,20.39-.52.14-5.4-20.14a29.83,29.83,0,0,0-4.62,1.64l8.48,19-.49.23-9.46-18.57a30.77,30.77,0,0,0-4.18,2.56l12.26,16.87-.44.32-13.12-16.2a31.48,31.48,0,0,0-3.55,3.38l15.5,14c-.12.13-.25.26-.36.4l-16.2-13.11a31.36,31.36,0,0,0-2.77,4l18,10.42c-.09.16-.18.31-.26.47l-18.57-9.46c-.17.32-.34.63-.49,1a29,29,0,0,0-1.39,3.57l19.82,6.44c-.05.17-.1.34-.14.52L371.59,119a31.77,31.77,0,0,0-.88,4.82L391.43,126c0,.18,0,.36,0,.54l-20.82-1.1c0,.2,0,.39,0,.59s0,.7,0,1a31.9,31.9,0,0,0,.17,3.26l20.74-2.18c0,.19.05.36.08.54l-20.6,3.26a30.14,30.14,0,0,0,1.14,4.77l19.83-6.44c.06.17.12.34.19.5l-19.48,7.48a32,32,0,0,0,2.11,4.42l18.07-10.43.28.47-17.49,11.35a33.2,33.2,0,0,0,3,3.89l15.5-14c.12.14.23.28.36.41l-14.74,14.73a31.55,31.55,0,0,0,3.73,3.19l12.26-16.87.44.31-11.36,17.48a31.64,31.64,0,0,0,3.36,1.91l.95.43,8.48-19c.16.08.33.14.5.21l-7.48,19.47a31.15,31.15,0,0,0,4.71,1.39l4.33-20.39.53.09-3.26,20.6a31.43,31.43,0,0,0,4.89.39V137.43l.54,0,1.09,20.83a32.29,32.29,0,0,0,4.86-.64L403.9,137.2l.53-.14,5.39,20.15a31.32,31.32,0,0,0,4.63-1.63L406,136.52l.48-.23,9.47,18.58.14-.07a31.48,31.48,0,0,0,4-2.5l-12.25-16.86.43-.33,13.1,16.19a32.91,32.91,0,0,0,2.9-2.63c.23-.24.45-.49.67-.74l-15.49-14,.36-.4L426,146.7a32.21,32.21,0,0,0,2.79-4l-18.06-10.43c.09-.15.17-.31.25-.47l18.58,9.47a31.08,31.08,0,0,0,1.88-4.53l-19.83-6.45c.06-.17.1-.34.15-.52l20.15,5.41a30.93,30.93,0,0,0,.89-4.83Z" transform="translate(-2.53 -1.78)" style="fill:#fff;stroke:#000;stroke-miterlimit:10;stroke-width:0.25px"/><path id="r_hub" data-name="r hub" d="M395.22,119l-13.11-16.2c.42-.35.85-.67,1.29-1l12.26,16.87Zm2.31-1.41-8.48-19c-.49.22-1,.45-1.47.7l9.47,18.57Zm2.06-.68-4.33-20.39-.26,0c-.44.1-.88.22-1.33.34l5.4,20.14Zm-6.82,5-18-10.42c-.28.47-.53.94-.78,1.43l18.57,9.47Zm-.88,2-19.83-6.45c-.17.52-.32,1-.46,1.57l20.14,5.4C391.79,124.19,391.83,124,391.89,123.85Zm9.86-7.17V95.82c-.55,0-1.09,0-1.63.05l1.09,20.83Zm-7.7,3.44-15.5-14q-.54.6-1.05,1.23l16.19,13.12C393.8,120.38,393.93,120.25,394.05,120.12Zm17.56,3.73,19.84-6.45c-.17-.51-.35-1-.55-1.53l-19.47,7.47C411.49,123.51,411.56,123.68,411.61,123.85Zm-7.7-6.95,4.33-20.38c-.53-.11-1.06-.21-1.6-.3l-3.27,20.6ZM391.43,126l-20.72-2.18c-.06.54-.1,1.08-.13,1.62l20.82,1.1C391.41,126.33,391.41,126.15,391.43,126Zm20.64,0,20.73-2.18c-.06-.54-.13-1.08-.22-1.62L412,125.43C412,125.61,412.05,125.79,412.07,126Zm-1.34-4.1,18.06-10.43c-.27-.47-.56-.93-.85-1.39l-17.49,11.36C410.55,121.56,410.64,121.71,410.73,121.87Zm-2.89-3.2L420.1,101.8c-.44-.32-.89-.63-1.34-.93L407.4,118.36C407.55,118.46,407.7,118.56,407.84,118.67ZM406,117.58l8.48-19c-.5-.22-1-.43-1.51-.62l-7.47,19.47Zm3.48,2.54,15.5-14c-.37-.4-.74-.79-1.12-1.18l-14.74,14.74Zm0,13.87,15.49,13.95c.37-.4.72-.82,1.06-1.24l-16.19-13.12C409.7,133.72,409.57,133.85,409.45,134Zm-5.54,3.21,4.33,20.39c.53-.12,1.06-.24,1.58-.38l-5.39-20.14Zm2.06-.67,8.48,19.05c.5-.22,1-.46,1.47-.71l-9.46-18.58Zm1.87-1.09,12.25,16.86c.44-.32.87-.66,1.29-1l-13.1-16.19C408.14,135.23,408,135.33,407.84,135.44Zm4.23-7.3,20.73,2.18c.06-.54.1-1.08.13-1.63L412.1,127.6C412.09,127.78,412.09,128,412.07,128.14Zm-1.34,4.1,18.06,10.42c.27-.47.53-.94.78-1.43L411,131.76Zm.88-2,19.84,6.44c.16-.51.32-1,.46-1.56l-20.15-5.4C411.71,129.91,411.67,130.09,411.61,130.26Zm-14.08,6.27-8.48,19c.5.23,1,.43,1.51.63L398,136.73Zm-4.76-4.29-18.06,10.42c.27.48.56.94.85,1.39l17.49-11.35C393,132.55,392.86,132.39,392.77,132.24Zm-.88-2-19.84,6.44c.17.52.35,1,.55,1.54l19.47-7.47C392,130.6,391.94,130.43,391.89,130.26Zm2.16,3.73-15.5,13.95c.1.11.19.22.3.33.27.29.54.57.82.85l14.74-14.73Zm7.7,3.44v20.85c.55,0,1.09,0,1.63-.05l-1.09-20.83Zm-2.16-.23-4.33,20.39c.53.11,1.06.21,1.6.3l3.27-20.6C400,137.26,399.77,137.24,399.59,137.2Zm-8.16-9.06-20.73,2.18c.05.54.12,1.08.21,1.61l20.6-3.26C391.48,128.49,391.45,128.32,391.43,128.14Zm4.23,7.3L383.4,152.31c.44.32.89.63,1.34.92l11.36-17.48Zm3.93-18.54a10.38,10.38,0,1,0,12.31,8A10.39,10.39,0,0,0,399.59,116.9Z" transform="translate(-2.53 -1.78)" style="fill:#fff;stroke:#000;stroke-miterlimit:10;stroke-width:0.25px"/><path id="r_logo" data-name="r logo" d="M401.75,131.67a4.62,4.62,0,1,1,4.64-4.57A4.64,4.64,0,0,1,401.75,131.67Zm0-8.69a4.09,4.09,0,1,0,4.1,4.08A4.1,4.1,0,0,0,401.75,123Zm-2.57,1.77a.22.22,0,0,0-.05.29l.81,2.09.56,1.45.44-1.14a.24.24,0,0,1,.28-.2c.34,0,.67,0,1,0,.17,0,.24.05.3.21.13.36.28.73.43,1.13l1.31-3.37c0-.1.08-.2.1-.3a.17.17,0,0,0,0-.14l-.8-.72c0,.11-.07.16-.09.21l-.87,2.42c-.06.15-.12.22-.3.21-.35,0-.71,0-1.06,0a.23.23,0,0,1-.26-.18c-.13-.38-.27-.75-.41-1.13L400,124Zm5.83,1.18-1.58,4.13A3.43,3.43,0,0,0,405,125.93Zm-6.54,0a3.41,3.41,0,0,0,1.55,4C399.51,128.67,399,127.34,398.47,126Zm3.26,2.1c-.3.79-.59,1.55-.89,2.31a3.32,3.32,0,0,0,1.78,0Zm0-2c.29-.8.56-1.56.85-2.34a3.17,3.17,0,0,0-1.7,0Z" transform="translate(-2.53 -1.78)"/><path id="r_tire-2" data-name="r tire" d="M401.75,87.55a39.5,39.5,0,1,0,39.5,39.5A39.5,39.5,0,0,0,401.75,87.55Zm0,70.73A31.23,31.23,0,1,1,433,127.05,31.23,31.23,0,0,1,401.75,158.28Z" transform="translate(-2.53 -1.78)" style="fill:#fff;stroke:#000;stroke-miterlimit:10;stroke-width:0.25px"/></g><g id="f_tire" data-name="f tire"><path id="f_tire_shadow" data-name="f tire shadow" d="M103.44,128.14c0-.18,0-.36,0-.54l20.84,1.09c0-.54,0-1.09,0-1.64a29.27,29.27,0,0,0-.18-3.26L103.44,126c0-.18,0-.36-.08-.54l20.6-3.26c-.12-.7-.24-1.41-.4-2.1-.21-.9-.46-1.79-.74-2.67L103,123.85c-.06-.18-.12-.34-.19-.51l19.48-7.47a30.55,30.55,0,0,0-2.12-4.43L102.1,121.87c-.09-.16-.18-.31-.28-.46l17.49-11.36-.22-.35a33.72,33.72,0,0,0-2.77-3.54l-15.5,14c-.12-.14-.23-.27-.36-.4L115.2,105a31.47,31.47,0,0,0-3.73-3.18L99.22,118.67c-.15-.11-.3-.22-.45-.31l11.36-17.49a30.31,30.31,0,0,0-4.31-2.34l-8.48,19-.5-.21,7.48-19.46a31.15,31.15,0,0,0-4.71-1.39L95.28,116.9l-.53-.08L98,96.22l-.61-.1a31.71,31.71,0,0,0-4.28-.3v20.86l-.54,0L91.5,95.87a32.59,32.59,0,0,0-4.87.64L91,116.9l-.53.14L85.05,96.9a30.51,30.51,0,0,0-4.62,1.64l8.48,19a4.44,4.44,0,0,0-.49.24L79,99.24a30.54,30.54,0,0,0-4.18,2.56L87,118.67l-.43.32-13.12-16.2a30.65,30.65,0,0,0-3.55,3.38l15.49,14c-.12.13-.24.27-.35.41l-16.2-13.12a31.43,31.43,0,0,0-2.78,4l18.06,10.42c-.09.16-.18.31-.26.47l-18.58-9.46c-.16.32-.33.63-.48,1a30.75,30.75,0,0,0-1.4,3.57l19.83,6.44c-.06.17-.1.34-.15.52L63,119a30.59,30.59,0,0,0-.89,4.82L82.81,126c0,.18,0,.36,0,.54L62,125.41c0,.2,0,.39,0,.59s0,.7,0,1a31.9,31.9,0,0,0,.17,3.26l20.74-2.18a4.68,4.68,0,0,0,.08.54l-20.61,3.26a30.16,30.16,0,0,0,1.15,4.77l19.83-6.44.18.5L64,138.24a30.89,30.89,0,0,0,2.11,4.42l18.07-10.43.28.47L66.94,144.05a30.44,30.44,0,0,0,3,3.89L85.42,134c.12.13.24.27.37.4L71.05,149.12a31.45,31.45,0,0,0,3.72,3.19L87,135.44c.15.1.29.21.45.31L76.12,153.23a31.5,31.5,0,0,0,3.35,1.91l1,.43,8.48-19c.16.08.33.14.5.21L81.93,156.2a31.37,31.37,0,0,0,4.7,1.39L91,137.2c.17,0,.35.06.53.09l-3.27,20.6a31.63,31.63,0,0,0,4.89.39V137.43c.19,0,.36,0,.54,0l1.09,20.83a32.29,32.29,0,0,0,4.86-.64L95.28,137.2l.53-.13,5.39,20.14a31.61,31.61,0,0,0,4.62-1.63l-8.48-19.05.49-.24,9.46,18.58.14-.06a32.09,32.09,0,0,0,4-2.51L99.21,135.44c.15-.11.3-.21.44-.33l13.1,16.19a31.3,31.3,0,0,0,2.89-2.63l.68-.73L100.82,134c.12-.14.25-.27.36-.41l16.2,13.12a31.12,31.12,0,0,0,2.78-4L102.1,132.23c.09-.15.18-.31.26-.47l18.58,9.47a31.08,31.08,0,0,0,1.88-4.53L103,130.26c.05-.18.1-.35.14-.53l20.15,5.41a30.94,30.94,0,0,0,.9-4.83Z" transform="translate(-2.53 -1.78)" style="fill:#fff;stroke:#000;stroke-miterlimit:10;stroke-width:0.25px"/><path id="f_hub" data-name="f hub" d="M86.6,119l-13.12-16.2c.42-.35.86-.67,1.3-1L87,118.67Zm2.31-1.41-8.48-19c-.5.22-1,.45-1.47.7l9.46,18.57ZM91,116.9,86.63,96.51l-.25,0c-.45.1-.89.22-1.33.34L90.44,117Zm-6.82,5L66.09,111.45c-.27.47-.53.94-.78,1.43l18.58,9.47C84,122.18,84.06,122,84.15,121.87Zm-.89,2L63.43,117.4c-.16.52-.32,1-.46,1.57l20.14,5.4C83.16,124.19,83.2,124,83.26,123.85Zm9.87-7.17V95.82c-.55,0-1.09,0-1.63.05l1.08,20.83Zm-7.71,3.44-15.49-14c-.37.4-.72.81-1.06,1.23l16.19,13.12ZM103,123.85l19.83-6.45c-.17-.51-.35-1-.54-1.53l-19.48,7.47C102.87,123.51,102.93,123.68,103,123.85Zm-7.71-6.95,4.33-20.38c-.53-.11-1.06-.21-1.6-.3l-3.26,20.6ZM82.81,126l-20.73-2.18q-.07.81-.12,1.62l20.82,1.1C82.79,126.33,82.79,126.15,82.81,126Zm20.63,0,20.73-2.18c0-.54-.13-1.08-.21-1.62l-20.6,3.26C103.39,125.61,103.42,125.79,103.44,126Zm-1.34-4.1,18.06-10.43c-.27-.47-.55-.93-.85-1.39l-17.49,11.36C101.92,121.56,102,121.71,102.1,121.87Zm-2.88-3.2,12.25-16.87c-.44-.32-.88-.63-1.34-.93L98.77,118.36C98.93,118.46,99.07,118.56,99.22,118.67Zm-1.88-1.09,8.48-19c-.49-.22-1-.43-1.5-.62l-7.48,19.47Zm3.49,2.54,15.49-14c-.36-.4-.74-.79-1.12-1.18l-14.74,14.74C100.59,119.85,100.71,120,100.83,120.12Zm0,13.87,15.49,13.95c.36-.4.72-.82,1.06-1.24l-16.2-13.12C101.07,133.72,101,133.85,100.83,134Zm-5.55,3.21,4.33,20.39c.54-.12,1.07-.24,1.59-.38l-5.39-20.14Zm2.06-.67,8.49,19.05c.49-.22,1-.46,1.46-.71l-9.46-18.58Zm1.88-1.09,12.25,16.86c.44-.32.86-.66,1.28-1l-13.1-16.19C99.51,135.23,99.36,135.33,99.22,135.44Zm4.22-7.3,20.74,2.18c.06-.54.1-1.08.13-1.63l-20.84-1.09C103.46,127.78,103.46,128,103.44,128.14Zm-1.34,4.1,18.06,10.42c.28-.47.53-.94.78-1.43l-18.58-9.47C102.28,131.92,102.19,132.08,102.1,132.24Zm.89-2,19.83,6.44c.17-.51.32-1,.46-1.56l-20.14-5.4Zm-14.08,6.27-8.48,19c.49.23,1,.43,1.5.63l7.48-19.47Zm-4.76-4.29L66.08,142.66c.28.48.56.94.86,1.39L84.43,132.7C84.33,132.55,84.24,132.39,84.15,132.24Zm-.89-2L63.43,136.7c.17.52.35,1,.54,1.54l19.48-7.47C83.38,130.6,83.32,130.43,83.26,130.26ZM85.42,134,69.93,147.94l.29.33c.27.29.55.57.83.85l14.74-14.73C85.66,134.26,85.54,134.12,85.42,134Zm7.71,3.44v20.85c.54,0,1.08,0,1.62-.05L93.67,137.4ZM91,137.2l-4.34,20.39c.53.11,1.07.21,1.61.3l3.26-20.6C91.32,137.26,91.14,137.24,91,137.2Zm-8.16-9.06-20.74,2.18c.06.54.13,1.08.21,1.61l20.61-3.26C82.86,128.49,82.83,128.32,82.81,128.14Zm4.22,7.3L74.77,152.31c.44.32.89.63,1.35.92l11.36-17.48C87.32,135.65,87.18,135.54,87,135.44ZM91,116.9a10.38,10.38,0,1,0,12.3,8A10.37,10.37,0,0,0,91,116.9Z" transform="translate(-2.53 -1.78)" style="fill:#fff;stroke:#000;stroke-miterlimit:10;stroke-width:0.25px"/><path id="f_tire-2" data-name="f tire" d="M93.13,87.55a39.5,39.5,0,1,0,39.5,39.5A39.5,39.5,0,0,0,93.13,87.55Zm0,70.73a31.23,31.23,0,1,1,31.22-31.23A31.23,31.23,0,0,1,93.13,158.28Z" transform="translate(-2.53 -1.78)" style="fill:#fff;stroke:#000;stroke-miterlimit:10;stroke-width:0.25px"/><path id="f_logo" data-name="f logo" d="M93.13,131.67a4.62,4.62,0,1,1,4.63-4.57A4.59,4.59,0,0,1,93.13,131.67Zm0-8.69a4.09,4.09,0,1,0,4.09,4.08A4.1,4.1,0,0,0,93.13,123Zm-2.57,1.77a.23.23,0,0,0-.06.29c.28.7.54,1.4.81,2.09l.56,1.45c.16-.41.31-.77.44-1.14a.25.25,0,0,1,.29-.2c.33,0,.67,0,1,0a.25.25,0,0,1,.3.21c.14.36.28.73.44,1.13l1.3-3.37c0-.1.08-.2.11-.3a.17.17,0,0,0,0-.14c-.25-.24-.51-.47-.8-.72l-.08.21c-.29.8-.59,1.61-.88,2.42a.25.25,0,0,1-.29.21c-.36,0-.71,0-1.07,0a.23.23,0,0,1-.26-.18c-.12-.38-.27-.75-.41-1.13s-.36-1-.56-1.56Zm5.83,1.18-1.59,4.13A3.44,3.44,0,0,0,96.39,125.93Zm-6.54,0a3.41,3.41,0,0,0,1.55,4Zm3.25,2.1-.88,2.31a3.28,3.28,0,0,0,1.77,0Zm.05-2,.84-2.34a3.13,3.13,0,0,0-1.69,0Z" transform="translate(-2.53 -1.78)"/></g><path id="rear_window" data-name="rear window" d="M424.75,19.64c8.69,9,22.25,28.47,23.38,29.25.65.45,4,.48,6.75.54-1.35-1.6-2.88-3.38-4.63-5.38-15.75-18-24.09-24.78-20.69-28.18.1-.11.17-.21.26-.32C423.18,16.6,423.75,18.63,424.75,19.64Z" transform="translate(-2.53 -1.78)" style="fill:#fff;stroke:#000;stroke-miterlimit:10;stroke-width:0.25px"/><path id="window_trim" data-name="window trim" d="M395.63,38.89S385.13,15.55,378,11.39c-3.46-3-65.83-4.67-74.67-4.84,0,0-38.67-1.7-72.67,5.38s-89.75,43.37-87,44.87c.56.3,4,.29,9.36.08,21.18-.85,71.3-4.93,79.89-5.33,11.37-2,151.34-3.95,159.82-4H393S397.29,43.22,395.63,38.89Zm-127.69,10c-18.09.52-31.81,1.08-35.17,1.65-3.2.15-11.73.77-22.51,1.56-18.69,1.37-43.1,3.16-56.62,3.73-2.77.12-5.1.18-6.81.18l-1.58,0c6.71-6.15,54.19-36.57,85.58-43.11,17.33-3.61,36-4.91,49.75-5.34Zm124.58-2.36-1.59,0c-4.28,0-14.45.18-27.68.39V10.15c7.66.61,13.11,1.28,14.06,2l.14.1c6.81,4,17.16,26.82,17.26,27.05C395.88,42.34,393.36,45.58,392.52,46.55Z" transform="translate(-2.53 -1.78)" style="stroke:#000;stroke-miterlimit:10;stroke-width:0.25px"/><path id="windows" d="M280.58,7.56,267.94,48.91l-.68,0-1.1,0-1.71.06-1.19,0-1.53.05-1.25,0-1.46,0-1.14,0-1.45.05-1.12,0-1.37,0-1.06,0-1.34,0-1,0-1.23.05-1,0-1.17,0-.92,0-1.12.05-.88,0-1,0-.87,0-.92,0-.8,0-.87,0-.7,0-.82,0-.62,0-.75,0-.54,0-.66,0-.47,0-.6.05-.37,0-.54.06-.26,0-.63.09c-3.2.15-11.73.77-22.51,1.56l-3.87.29-1.19.08-.61,0-1.31.09-.71.06-6.86.49-.43,0-1.68.12-.19,0-1.83.13h0l-7.7.54h0l-1.88.12h-.08c-15,1-28.91,1.88-35,1.88-.67,0-1.19,0-1.58,0,6.71-6.15,54.19-36.56,85.58-43.1C248.16,9.3,266.81,8,280.58,7.56Zm22.67,0s-3.19-.14-8.38-.17l-5.52,41L306,48h.59l2.88-.06.63,0,2.77,0,.74,0,2.86,0h.23l3.11-.06h.64l2.85-.06h.57l2.77-.05h.82l2.43,0,1.35,0,1.9,0,1.35,0,2.1,0,1.08,0,2.34,0h.76l2.51,0h.75l2.25,0,1.2,0,1.62,0,1.7,0,1.3,0,1.56,0,1.57,0,1.39,0,1.69,0L360.59,10C343.19,8.7,316.75,7.81,303.25,7.55ZM394.71,39.3c-.1-.23-10.45-23.09-17.26-27l-.14-.1c-.95-.72-6.39-1.39-14.06-2V47h.56l1.29,0,1.09,0,1.73,0h.23l2.24,0H371l1.63,0h1.14l6.33-.09,4.74-.07,6.12-.07,1.59,0C393.36,45.58,395.88,42.34,394.71,39.3Z" transform="translate(-2.53 -1.78)" style="fill:#fff;stroke:#000;stroke-miterlimit:10;stroke-width:0.25px"/><path id="rearview" d="M184,39.64c2,.32,3,13.84,1.23,15.29s-19.69-1.5-20.63-4.38C163.31,45.49,171.92,39.09,184,39.64Z" transform="translate(-2.53 -1.78)" style="fill:#fff;stroke:#000;stroke-miterlimit:10;stroke-width:0.25px"/></svg>